<svg width="33" height="35" viewBox="0 0 33 35" fill="none" xmlns="http://www.w3.org/2000/svg">
<path d="M24.9903 7.1401C26.962 7.1401 28.5604 5.54173 28.5604 3.57005C28.5604 1.59836 26.962 0 24.9903 0C23.0187 0 21.4203 1.59836 21.4203 3.57005C21.4203 5.54173 23.0187 7.1401 24.9903 7.1401Z" fill="#F44F2A"/>
<path d="M22.8073 16.0098C23.4784 17.0148 24.6066 17.5985 25.7811 17.5985C26.0667 17.5985 26.3559 17.5628 26.6415 17.4914L32.5606 16.0116L31.6985 12.5486L25.7793 14.0284L23.3178 10.3388C22.7983 9.55514 21.9683 8.99821 21.0472 8.81436L14.182 7.43989C12.5969 7.1168 11.0082 7.91292 10.2889 9.34451L7.32931 15.2636L10.5227 16.8612L13.4823 10.9403L16.9934 11.6436L7.9148 26.7753H0V30.3453H7.9148C9.16074 30.3453 10.3335 29.6813 10.9761 28.6121L14.3998 22.9071L23.6266 24.7528L26.8682 34.4794L30.2526 33.3495L27.0128 23.6247C26.6094 22.4127 25.5812 21.5041 24.3245 21.2506L18.8998 20.1671L22.0629 14.8941L22.8073 16.0098Z" fill="#F44F2A"/>
</svg>
