<svg width="17" height="18" viewBox="0 0 17 18" fill="none" xmlns="http://www.w3.org/2000/svg">
<path d="M5.10817 14.1082C4.64503 14.1082 4.24319 14.2784 3.90264 14.619C3.5621 14.9595 3.39183 15.3614 3.39183 15.8245C3.39183 16.2877 3.55529 16.6827 3.88221 17.0096C4.20913 17.3365 4.61098 17.5 5.08774 17.5C5.5645 17.5 5.96635 17.3365 6.29327 17.0096C6.62019 16.6827 6.78365 16.2877 6.78365 15.8245C6.78365 15.3614 6.62019 14.9595 6.29327 14.619C5.96635 14.2784 5.57131 14.1082 5.10817 14.1082ZM0 0.5V2.17548H1.67548L4.74038 8.63221L3.59615 10.7163C3.45994 10.9888 3.39183 11.2612 3.39183 11.5337C3.39183 12.024 3.5621 12.4327 3.90264 12.7596C4.24319 13.0865 4.64503 13.25 5.10817 13.25H15.3245V11.5337H5.4351C5.38061 11.5337 5.33293 11.5132 5.29207 11.4724C5.2512 11.4315 5.23077 11.3838 5.23077 11.3293L5.27163 11.2476L6.04808 9.85817H12.3822C12.6819 9.85817 12.9679 9.77644 13.2404 9.61298C13.5128 9.44952 13.7171 9.23157 13.8534 8.95913L16.9183 3.44231C16.9728 3.33333 17 3.19712 17 3.03365C17 2.78846 16.9183 2.58413 16.7548 2.42067C16.5913 2.25721 16.4006 2.17548 16.1827 2.17548H3.55529L2.77885 0.5H0ZM13.6082 14.1082C13.145 14.1082 12.7432 14.2784 12.4026 14.619C12.0621 14.9595 11.8986 15.3614 11.9123 15.8245C11.9259 16.2877 12.0962 16.6827 12.4231 17.0096C12.75 17.3365 13.145 17.5 13.6082 17.5C14.0713 17.5 14.4732 17.3365 14.8137 17.0096C15.1542 16.6827 15.3245 16.2877 15.3245 15.8245C15.3245 15.3614 15.1542 14.9595 14.8137 14.619C14.4732 14.2784 14.0713 14.1082 13.6082 14.1082Z" fill="white"/>
</svg>
