<svg width="21" height="18" viewBox="0 0 21 18" fill="none" xmlns="http://www.w3.org/2000/svg">
<path d="M0 1.28572C0 0.575644 0.575644 0 1.28572 0H19.2859C19.996 0 20.5716 0.575644 20.5716 1.28572C20.5716 1.9958 19.996 2.57145 19.2859 2.57145H1.28572C0.575644 2.57145 0 1.9958 0 1.28572Z" fill="white"/>
<path d="M0 16.7144C0 16.0043 0.575644 15.4287 1.28572 15.4287H19.2859C19.996 15.4287 20.5716 16.0043 20.5716 16.7144C20.5716 17.4245 19.996 18.0002 19.2859 18.0002H1.28572C0.575644 18.0002 0 17.4245 0 16.7144Z" fill="white"/>
<path d="M1.28572 7.71436C0.575644 7.71436 0 8.28997 0 9.00008C0 9.71018 0.575644 10.2858 1.28572 10.2858H11.5715C12.2816 10.2858 12.8572 9.71018 12.8572 9.00008C12.8572 8.28997 12.2816 7.71436 11.5715 7.71436H1.28572Z" fill="white"/>
</svg>
