<svg width="59" height="56" viewBox="0 0 59 56" fill="none" xmlns="http://www.w3.org/2000/svg">
<path d="M46.8013 6.56768V0.633545H12.2671V6.56768H0.755676V15.0228C0.755676 22.2894 6.19482 28.2552 13.1995 29.2164C15.214 35.139 20.351 39.6054 26.6563 40.6645V43.8013C26.6563 46.9814 24.0807 49.557 20.9006 49.557H18.0228V55.3127H41.0456V49.557H38.1678C34.9877 49.557 32.4121 46.9814 32.4121 43.8013V40.6645C38.7146 39.6054 43.8544 35.139 45.8689 29.2164C52.8736 28.2552 58.3127 22.2894 58.3127 15.0228V6.56768H46.8013ZM6.51138 15.0228V12.3234H12.2671V23.1614C8.91727 21.9757 6.51138 18.7755 6.51138 15.0228ZM52.557 15.0228C52.557 18.7755 50.1511 21.9757 46.8013 23.1671V12.3176H52.557V15.0228Z" fill="#F44F2A"/>
</svg>
