<svg width="50" height="55" viewBox="0 0 50 55" fill="none" xmlns="http://www.w3.org/2000/svg">
<path fill-rule="evenodd" clip-rule="evenodd" d="M20.8429 0H26.9723V4.05128C28.9219 3.93256 30.8116 4.04607 32.5096 4.40452C25.3069 7.23945 21.993 14.5249 21.4504 15.718L21.417 15.7911C19.657 15.5238 17.7501 15.3016 15.9458 15.3182C14.0864 15.4766 12.2824 15.7514 9.31129 17.4249C8.89234 17.7209 8.32751 18.2065 7.55996 18.9469C7.50418 18.9068 7.44442 18.8696 7.36627 18.8207C7.30375 18.7816 7.22912 18.7352 7.13534 18.6739C6.71103 18.3967 6.0915 18.0215 5.33605 17.6469C3.77983 16.8747 1.87084 16.2163 0 16.2163V10.2734C3.23487 10.2734 6.1433 11.3716 8.128 12.3563C8.81649 12.6978 9.42069 13.0393 9.9207 13.3427C10.3631 12.3984 10.9468 11.5202 11.6446 10.7105L8.27863 5.4287L13.674 1.92491L16.7794 6.79798C18.0583 6.13846 19.43 5.59119 20.8429 5.16109V0ZM37.3255 13.3177C35.0918 14.3531 33.1582 16.0551 31.415 19.3313C31.415 19.3313 27.5475 17.5626 24.4099 16.6434C26.818 11.7613 29.6202 9.01438 33.7525 7.09893C37.7498 5.24606 42.5185 4.77163 48.1834 4.96738L47.9152 12.259C42.6882 12.0783 39.694 12.2198 37.3255 13.3177ZM10.5465 20.2569C-0.582463 30.1835 15.316 55 28.035 55C40.7538 55 58.2674 30.2056 45.5234 18.8389C45.2293 18.5766 44.9719 18.3406 44.7329 18.1215C43.6795 17.1556 42.9785 16.5129 41.0348 15.3572C37.1238 15.3572 34.7669 19.2695 33.6939 21.6529C33.6394 21.774 33.5721 21.8869 33.4943 21.9905L31.0207 28.8717L30.1294 32.0715C30.0353 32.4094 30.0598 32.7692 30.1991 33.0912L31.2402 35.4973L36.631 34.8716L36.9844 37.9158L31.9143 38.5044L32.2437 43.334L29.1862 43.5426L28.7751 37.5177L27.3865 34.3082C26.9686 33.3425 26.8947 32.2626 27.177 31.2491L27.2037 31.1535L24.0868 32.563L22.049 37.7144L19.1991 36.5871L20.8131 32.5073L15.8935 31.3483L16.5962 28.3652L22.7341 29.8113L28.3371 27.2773L30.2213 22.0359C25.3668 19.7551 15.3978 15.9297 10.5465 20.2569Z" fill="#F44F2A"/>
</svg>
