<svg width="67" height="49" viewBox="0 0 67 49" fill="none" xmlns="http://www.w3.org/2000/svg">
<path d="M66.0604 43.1966C66.0604 43.1966 69.0964 33.2911 62.4927 31.2672C60.2475 30.579 57.7227 29.6246 55.1467 28.3655C51.3804 29.8118 46.6225 30.0151 41.6698 28.4971L40.8444 28.2441L48.1549 24.3082C47.1106 23.5909 46.1195 22.8175 45.1386 22.0112L36.8992 26.3848C35.6925 25.726 34.6151 24.9985 33.6571 24.2353L42.4344 19.5209C41.6158 18.656 40.8304 17.8012 40.0752 16.8474L31.1254 21.6534C30.3474 20.6564 29.7877 19.6541 29.3372 18.6491L38.0942 14.0008C37.5244 13.0315 36.9748 11.9962 36.5014 10.9481L28.4346 15.2301C28.3521 14.0851 28.3687 12.9704 28.7026 11.8808C29.5628 9.07429 31.8177 7.02029 34.7793 5.72469C34.7053 5.37693 34.5983 5.01904 34.5344 4.63826L30.2618 0.54753C26.504 2.79106 20.0148 3.22219 12.9164 1.51615L12.7209 1.56461L10.4097 0.856221C10.4097 0.856221 6.09587 3.14606 2.55394 14.7024C1.97711 16.5845 1.47112 18.2354 1.16804 19.6957L10.9414 22.6911C14.5734 23.8043 18.6687 25.9986 22.6522 28.0864C26.2852 30.139 30.0706 32.166 33.0422 33.0768L66.0604 43.1966ZM1.30185 30.5726C1.30185 30.5726 -0.613214 29.9857 0.486237 23.0987L9.92945 25.9929C16.5331 28.0169 25.4266 34.3547 32.0302 36.3786L64.1239 46.2151C62.3941 47.8521 59.8762 48.5251 57.4328 47.7763L1.30185 30.5726Z" fill="#F44F2A"/>
</svg>
